# xmcd
#
# Track frame offsets:
#	182
#	8237
#	20877
#	32662
#	44737
#	58027
#	70692
#	82890
#	93940
#	103530
#	115515
#	129240
#	139660
#	153535
#	165315
#	177820
#	187435
#	198302
#	208015
#	221872
#
# Disc length: 3092
#
# Revision: 3
# Processed by: cddbd v1.5.1PL0 Copyright (c) Steve Scherf et al.
# Submitted via: DiscPlay 4.0.4
# Normalized: r1:DSETVAR1,TDELIM( - );r2:TSWAP
#
DISCID=170c1214
DTITLE=Various Artist - Soul Gems [CD1]
DYEAR=1900
DGENRE=
TTITLE0=Robert Parker - Barefootin'
TTITLE1=Sam Dees - Lonely For You Baby
TTITLE2=Eddie Bo - Our Love Will Never Falter
TTITLE3=Bob and Earl - Harlem Shuffle
TTITLE4=Johnny Adams - You Made A New Man Out Of Me
TTITLE5=Roscoe Shelton - Soon As Darknes Falls
TTITLE6=Joe Simon - The Choking Kind
TTITLE7=Mighty Sam - I Ned A Lot Of Lovin'
TTITLE8=Jimmy Church - My Faith In You
TTITLE9=Earl Gaines - Takin' All The Love I Can
TTITLE10=Irma Thomas - I've Been Loving You Too Long
TTITLE11=Etta James - Security
TTITLE12=Ruby Winters - I Don't Want To Hurt Nobody
TTITLE13=Mitty Collier - Together
TTITLE14=Lee Dorsey - Working In A Coal Mine
TTITLE15=Jackie Beavers - Hold On
TTITLE16=Joe Tex - You Keep Her
TTITLE17=The O'Jays - I Can't Get Enough
TTITLE18=Bobby Patterson - One Ounce Of Prevention
TTITLE19=G. Davis - I Can't Be Your Part Time Baby
EXTD=
EXTT0=
EXTT1=
EXTT2=
EXTT3=
EXTT4=
EXTT5=
EXTT6=
EXTT7=
EXTT8=
EXTT9=
EXTT10=
EXTT11=
EXTT12=
EXTT13=
EXTT14=
EXTT15=
EXTT16=
EXTT17=
EXTT18=
EXTT19=
PLAYORDER=
